# xmcd
#
# Track frame offsets: 
#        152
#        15730
#        32918
#        58553
#        77430
#        93055
#        117417
#        135311
#        150840
#        168674
#        199325
#        217591
#        248510
#        279528
#
# Disc length: 4116 seconds
#
# Revision: 4
# Processed by: cddbd v1.5.2PL0 Copyright (c) Steve Scherf et al.
# Submitted via: ExactAudioCopy v0.95b3
#
DISCID=a710120e
DTITLE=Various Artist - Essential Chill Tonic [CD2]
DYEAR=2003
DGENRE=Blues
TTITLE0=I Monster - Daydream In Blue
TTITLE1=The Streets - Let's Push Things Forward
TTITLE2=Luciano - Life (De Lata Mix)
TTITLE3=Marvin Gaye - "T" Plays It Cool
TTITLE4=Moby - Why Does My Heart Feel So Bad
TTITLE5=Stereo MCS - Fever (Steve Hillage Remix)
TTITLE6=Morcheeba - World Looking In
TTITLE7=Sunshine Anderson - Your Woman
TTITLE8=Shaun Escoffery - Days Like This (Spen and Karizma Remix)
TTITLE9=Icehouse - No Promises ([Love] Tattoo Remix)
TTITLE10=Vangelis - Prelude
TTITLE11=Leftfield - Song Of Life
TTITLE12=Lao and Bushwacka! - Shining
TTITLE13=Hybrid - Beachcoma
EXTD=
EXTT0=
EXTT1=
EXTT2=
EXTT3=
EXTT4=
EXTT5=
EXTT6=
EXTT7=
EXTT8=
EXTT9=
EXTT10=
EXTT11=
EXTT12=
EXTT13=
PLAYORDER=
